<svg xmlns="http://www.w3.org/2000/svg" width="194" height="75" viewBox="0 0 194 75" fill="none">
  <path d="M182.912 74.5953C179.312 74.5953 176.539 73.5738 174.594 71.5307C172.745 69.3904 171.821 66.4232 171.821 62.629V12.7207C171.821 8.82917 172.745 5.8619 174.594 3.81887C176.539 1.67856 179.312 0.608398 182.912 0.608398C186.414 0.608398 189.089 1.67856 190.938 3.81887C192.884 5.8619 193.856 8.82917 193.856 12.7207V62.629C193.856 66.4232 192.932 69.3904 191.084 71.5307C189.235 73.5738 186.511 74.5953 182.912 74.5953Z" fill="white"/>
  <path d="M97.4407 74.5599C93.8411 74.5599 91.0684 73.5871 89.1227 71.6413C87.2742 69.6956 86.35 66.9229 86.35 63.3233V11.5179C86.35 7.91824 87.2742 5.1942 89.1227 3.34574C91.0684 1.4 93.7438 0.427119 97.1488 0.427119C100.651 0.427119 103.327 1.4 105.175 3.34574C107.023 5.1942 107.948 7.91824 107.948 11.5179V19.8359L106.342 15.0202C108.58 10.2531 111.888 6.60486 116.266 4.07539C120.741 1.44863 125.8 0.135254 131.442 0.135254C137.182 0.135254 141.901 1.25406 145.598 3.49167C149.295 5.63199 152.067 8.93975 153.916 13.415C155.764 17.7929 156.688 23.3869 156.688 30.197V63.3233C156.688 66.9229 155.716 69.6956 153.77 71.6413C151.921 73.5871 149.197 74.5599 145.598 74.5599C142.095 74.5599 139.371 73.5871 137.426 71.6413C135.577 69.6956 134.653 66.9229 134.653 63.3233V31.2185C134.653 26.2569 133.729 22.7059 131.88 20.5656C130.129 18.328 127.405 17.2092 123.708 17.2092C119.038 17.2092 115.293 18.6685 112.472 21.5871C109.747 24.5057 108.385 28.3972 108.385 33.2615V63.3233C108.385 70.8144 104.737 74.5599 97.4407 74.5599Z" fill="white"/>
  <path d="M41.1561 74.8518C32.6921 74.8518 25.3956 73.3438 19.2665 70.3279C13.2348 67.2148 8.56498 62.8855 5.25723 57.3401C2.04676 51.6974 0.441528 45.0819 0.441528 37.4935C0.441528 30.0997 1.99812 23.6301 5.1113 18.0847C8.22448 12.4421 12.5537 8.06416 18.0991 4.95097C23.7417 1.7405 30.114 0.135254 37.216 0.135254C42.3722 0.135254 47.0419 1.01084 51.2253 2.76201C55.4086 4.41589 59.0082 6.84807 62.0241 10.0585C65.04 13.1717 67.3263 17.0146 68.8829 21.5871C70.4394 26.0623 71.2177 31.0726 71.2177 36.6179C71.2177 38.4664 70.634 39.8771 69.4666 40.8499C68.2991 41.7255 66.5966 42.1633 64.359 42.1633H18.5369V30.7807H55.3113L52.9764 32.8237C52.9764 28.835 52.3927 25.5272 51.2253 22.9005C50.0578 20.1764 48.3553 18.1334 46.1177 16.7714C43.9774 15.4093 41.302 14.7283 38.0915 14.7283C34.4919 14.7283 31.4274 15.5553 28.8979 17.2092C26.3685 18.863 24.4227 21.2466 23.0607 24.3598C21.6987 27.473 21.0177 31.2185 21.0177 35.5964V36.7639C21.0177 44.1577 22.7202 49.6058 26.1253 53.1081C29.6276 56.6105 34.7838 58.3616 41.5939 58.3616C43.9288 58.3616 46.6041 58.0698 49.62 57.486C52.6359 56.9023 55.4573 55.9781 58.084 54.7134C60.3216 53.6432 62.316 53.3027 64.0672 53.6918C65.8183 53.9837 67.1803 54.762 68.1532 56.0267C69.1261 57.2915 69.6611 58.7508 69.7584 60.4047C69.953 62.0585 69.6125 63.7124 68.7369 65.3663C67.8613 66.9229 66.402 68.2363 64.359 69.3064C61.0513 71.1549 57.3057 72.5169 53.1224 73.3925C49.0363 74.3654 45.0476 74.8518 41.1561 74.8518Z" fill="white"/>
</svg>