<svg xmlns="http://www.w3.org/2000/svg" width="70" height="76" viewBox="0 0 70 76" fill="none">
  <path d="M53.5187 1.47312C50.434 2.55047 49.0677 4.22797 46.9648 6.66413L41.1241 14.2149L35.245 21.7657V37.3395H47.923L65.7121 15.159C66.4743 13.9394 67.157 13.0569 67.5846 11.3835C68.0975 9.37671 67.5627 6.42817 66.8605 5.24835C65.4561 2.88873 63.9919 1.82592 62.1791 1.23703C58.8176 0.288329 55.9692 0.617217 53.5187 1.47312Z" fill="#FFD700"/>
  <path d="M47.923 37.3394H35.245V52.6806L47.8846 69.1943C49.6748 71.1991 53.0776 75.8487 61.9286 75.3293C63.5671 75.2332 65.7691 74.303 67.3122 72.4978C68.7818 70.902 69.4188 69.1943 69.4188 66.5987C69.4188 63.5312 68.2484 62.3514 67.0781 60.6996L62.2011 54.8006L47.923 37.3394Z" fill="#00C7D4"/>
  <path d="M22.4101 37.3394H35.2453V52.6769L22.8783 68.4864C20.5627 71.4039 17.6903 73.9135 15.5837 74.6214C12.7749 75.5653 7.39134 75.9218 4.58254 73.9135C2.0089 72.0735 1.39373 70.3741 1.07039 68.2504C0.603335 65.1829 2.25408 62.1154 3.42441 60.6996L22.4101 37.3394Z" fill="#FD7202"/>
  <ellipse cx="12.7875" cy="10.5725" rx="9.91045" ry="9.91043" fill="white"/>
</svg>