<svg xmlns="http://www.w3.org/2000/svg" width="20" height="21" viewBox="0 0 20 21" fill="none">
  <path fill-rule="evenodd" clip-rule="evenodd" d="M18.3332 10.7432C18.3332 7.62786 18.3332 6.07017 17.6633 4.90991C17.2245 4.14982 16.5933 3.51863 15.8332 3.07979C14.6729 2.40991 13.1152 2.40991 9.99984 2.40991C6.88445 2.40991 5.32676 2.40991 4.1665 3.07979C3.40641 3.51863 2.77522 4.14982 2.33638 4.90991C1.6665 6.07017 1.6665 7.62786 1.6665 10.7432C1.6665 13.8586 1.6665 15.4163 2.33638 16.5766C2.77522 17.3367 3.40641 17.9679 4.1665 18.4067C5.32676 19.0766 6.88445 19.0766 9.99984 19.0766C13.1152 19.0766 14.6729 19.0766 15.8332 18.4067C16.5933 17.9679 17.2245 17.3367 17.6633 16.5766C18.3332 15.4163 18.3332 13.8586 18.3332 10.7432ZM8.72456 13.6346C8.48048 13.8787 8.48048 14.2744 8.72456 14.5185C8.96864 14.7626 9.36437 14.7626 9.60845 14.5185L11.7633 12.3637C12.6582 11.4687 12.6582 10.0177 11.7633 9.12279L9.60845 6.96797C9.36437 6.72389 8.96864 6.72389 8.72456 6.96797C8.48048 7.21205 8.48048 7.60778 8.72456 7.85185L10.8794 10.0067C11.2862 10.4135 11.2862 11.073 10.8794 11.4798L8.72456 13.6346Z" fill="#332266"/>
</svg>