<svg xmlns="http://www.w3.org/2000/svg" width="20" height="21" viewBox="0 0 20 21" fill="none">
  <path fill-rule="evenodd" clip-rule="evenodd" d="M18.3332 10.7432C18.3332 7.62786 18.3332 6.07017 17.6633 4.90991C17.2245 4.14982 16.5933 3.51863 15.8332 3.07979C14.6729 2.40991 13.1152 2.40991 9.99984 2.40991C6.88445 2.40991 5.32676 2.40991 4.1665 3.07979C3.40641 3.51863 2.77522 4.14982 2.33638 4.90991C1.6665 6.07017 1.6665 7.62786 1.6665 10.7432C1.6665 13.8586 1.6665 15.4163 2.33638 16.5766C2.77522 17.3367 3.40641 17.9679 4.1665 18.4067C5.32676 19.0766 6.88445 19.0766 9.99984 19.0766C13.1152 19.0766 14.6729 19.0766 15.8332 18.4067C16.5933 17.9679 17.2245 17.3367 17.6633 16.5766C18.3332 15.4163 18.3332 13.8586 18.3332 10.7432ZM11.2751 13.6346C11.5192 13.8787 11.5192 14.2744 11.2751 14.5185C11.031 14.7626 10.6353 14.7626 10.3912 14.5185L8.23641 12.3637C7.34145 11.4687 7.34146 10.0177 8.23641 9.12279L10.3912 6.96797C10.6353 6.72389 11.031 6.72389 11.2751 6.96797C11.5192 7.21205 11.5192 7.60778 11.2751 7.85185L9.12029 10.0067C8.71349 10.4135 8.71349 11.073 9.12029 11.4798L11.2751 13.6346Z" fill="#332266"/>
</svg>